<svg width="28" height="28" viewBox="0 0 28 28" fill="none" xmlns="http://www.w3.org/2000/svg">
<path d="M7.875 3.5C4.52941 3.5 3.5 4.52941 3.5 7.875C3.5 11.2206 4.52941 12.25 7.875 12.25C11.2206 12.25 12.25 11.2206 12.25 7.875C12.25 4.52941 11.2206 3.5 7.875 3.5Z" stroke="#A3A1FF" stroke-width="2.6" stroke-linecap="round" stroke-linejoin="round"/>
<path d="M7.875 15.75C4.52941 15.75 3.5 16.7794 3.5 20.125C3.5 23.4706 4.52941 24.5 7.875 24.5C11.2206 24.5 12.25 23.4706 12.25 20.125C12.25 16.7794 11.2206 15.75 7.875 15.75Z" stroke="#A3A1FF" stroke-width="2.6" stroke-linecap="round" stroke-linejoin="round"/>
<path d="M20.125 15.75C16.7794 15.75 15.75 16.7794 15.75 20.125C15.75 23.4706 16.7794 24.5 20.125 24.5C23.4706 24.5 24.5 23.4706 24.5 20.125C24.5 16.7794 23.4706 15.75 20.125 15.75Z" stroke="#A3A1FF" stroke-width="2.6" stroke-linecap="round" stroke-linejoin="round"/>
<path d="M20.125 3.5C16.7794 3.5 15.75 4.52941 15.75 7.875C15.75 11.2206 16.7794 12.25 20.125 12.25C23.4706 12.25 24.5 11.2206 24.5 7.875C24.5 4.52941 23.4706 3.5 20.125 3.5Z" stroke="#A3A1FF" stroke-width="2.6" stroke-linecap="round" stroke-linejoin="round"/>
</svg>
