<svg width="16" height="16" viewBox="0 0 16 16" fill="none" xmlns="http://www.w3.org/2000/svg">
<path d="M8 11.6364C6.99394 11.6364 6.13624 11.2817 5.42691 10.5724C4.71758 9.86303 4.36315 9.00558 4.36364 8C4.36364 6.99394 4.7183 6.13624 5.42764 5.42691C6.13697 4.71758 6.99442 4.36315 8 4.36364C9.00606 4.36364 9.86376 4.7183 10.5731 5.42764C11.2824 6.13697 11.6368 6.99442 11.6364 8C11.6364 9.00606 11.2817 9.86376 10.5724 10.5731C9.86303 11.2824 9.00558 11.6368 8 11.6364ZM0.727275 8.72727C0.521214 8.72727 0.348366 8.65745 0.20873 8.51782C0.0690934 8.37818 -0.000482332 8.20558 2.51652e-06 8C2.51652e-06 7.79394 0.0698207 7.62109 0.209457 7.48145C0.349093 7.34182 0.521699 7.27224 0.727275 7.27273H2.18182C2.38788 7.27273 2.56073 7.34255 2.70037 7.48218C2.84 7.62182 2.90958 7.79442 2.90909 8C2.90909 8.20606 2.83927 8.37891 2.69964 8.51855C2.56 8.65818 2.3874 8.72776 2.18182 8.72727H0.727275ZM13.8182 8.72727C13.6121 8.72727 13.4393 8.65745 13.2996 8.51782C13.16 8.37818 13.0904 8.20558 13.0909 8C13.0909 7.79394 13.1607 7.62109 13.3004 7.48145C13.44 7.34182 13.6126 7.27224 13.8182 7.27273H15.2727C15.4788 7.27273 15.6516 7.34255 15.7913 7.48218C15.9309 7.62182 16.0005 7.79442 16 8C16 8.20606 15.9302 8.37891 15.7905 8.51855C15.6509 8.65818 15.4783 8.72776 15.2727 8.72727H13.8182ZM8 2.90909C7.79394 2.90909 7.62109 2.83927 7.48145 2.69964C7.34182 2.56 7.27224 2.3874 7.27273 2.18182V0.727275C7.27273 0.521214 7.34255 0.348366 7.48218 0.20873C7.62182 0.0690934 7.79442 -0.000482332 8 2.51652e-06C8.20606 2.51652e-06 8.37891 0.0698207 8.51855 0.209457C8.65818 0.349093 8.72776 0.521699 8.72727 0.727275V2.18182C8.72727 2.38788 8.65745 2.56073 8.51782 2.70037C8.37818 2.84 8.20558 2.90958 8 2.90909ZM8 16C7.79394 16 7.62109 15.9302 7.48145 15.7905C7.34182 15.6509 7.27224 15.4783 7.27273 15.2727V13.8182C7.27273 13.6121 7.34255 13.4393 7.48218 13.2996C7.62182 13.16 7.79442 13.0904 8 13.0909C8.20606 13.0909 8.37891 13.1607 8.51855 13.3004C8.65818 13.44 8.72776 13.6126 8.72727 13.8182V15.2727C8.72727 15.4788 8.65745 15.6516 8.51782 15.7913C8.37818 15.9309 8.20558 16.0005 8 16ZM3.38182 4.4L2.6 3.63636C2.45455 3.50303 2.38473 3.33333 2.39055 3.12727C2.39637 2.92121 2.46618 2.74546 2.6 2.6C2.74546 2.45455 2.92121 2.38182 3.12727 2.38182C3.33333 2.38182 3.50303 2.45455 3.63636 2.6L4.4 3.38182C4.53333 3.52727 4.6 3.69697 4.6 3.89091C4.6 4.08485 4.53333 4.25455 4.4 4.4C4.26667 4.54546 4.10012 4.61527 3.90036 4.60946C3.70061 4.60364 3.52776 4.53382 3.38182 4.4ZM12.3636 13.4L11.6 12.6182C11.4667 12.4727 11.4 12.2999 11.4 12.0996C11.4 11.8994 11.4667 11.7328 11.6 11.6C11.7333 11.4545 11.9001 11.385 12.1004 11.3913C12.3006 11.3976 12.4732 11.4672 12.6182 11.6L13.4 12.3636C13.5455 12.497 13.6153 12.6667 13.6095 12.8727C13.6036 13.0788 13.5338 13.2545 13.4 13.4C13.2545 13.5455 13.0788 13.6182 12.8727 13.6182C12.6667 13.6182 12.497 13.5455 12.3636 13.4ZM11.6 4.4C11.4545 4.26667 11.3847 4.10012 11.3905 3.90036C11.3964 3.70061 11.4662 3.52776 11.6 3.38182L12.3636 2.6C12.497 2.45455 12.6667 2.38473 12.8727 2.39055C13.0788 2.39637 13.2545 2.46618 13.4 2.6C13.5455 2.74546 13.6182 2.92121 13.6182 3.12727C13.6182 3.33333 13.5455 3.50303 13.4 3.63636L12.6182 4.4C12.4727 4.53333 12.303 4.6 12.1091 4.6C11.9151 4.6 11.7455 4.53333 11.6 4.4ZM2.6 13.4C2.45455 13.2545 2.38182 13.0788 2.38182 12.8727C2.38182 12.6667 2.45455 12.497 2.6 12.3636L3.38182 11.6C3.52727 11.4667 3.69988 11.4 3.89964 11.4C4.09939 11.4 4.26618 11.4667 4.4 11.6C4.54546 11.7333 4.61527 11.9001 4.60946 12.1004C4.60364 12.3006 4.53382 12.4732 4.4 12.6182L3.63636 13.4C3.50303 13.5455 3.33333 13.6153 3.12727 13.6095C2.92121 13.6036 2.74546 13.5338 2.6 13.4Z" fill="#EFF2F4"/>
</svg>
