<svg width="67" height="67" viewBox="0 0 67 67" fill="none" xmlns="http://www.w3.org/2000/svg">
<g clip-path="url(#clip0_203_160)">
<path d="M60.619 0H6.38095C2.85685 0 0 2.85685 0 6.38095V60.619C0 64.1432 2.85685 67 6.38095 67H60.619C64.1432 67 67 64.1432 67 60.619V6.38095C67 2.85685 64.1432 0 60.619 0Z" fill="#5644FC"/>
<path d="M60.0943 17.0076H58.2258C58.3409 15.9172 58.3984 14.9537 58.3984 14.1172C58.3984 10.9841 57.5968 8.69677 55.9936 7.25717C54.3904 5.81758 52.4124 5.09871 50.0595 5.09871C46.8067 5.09871 43.5428 6.20595 40.2659 8.42043C36.989 10.6349 34.3077 13.7251 32.2202 17.691C30.1327 21.6569 29.0881 25.7964 29.0881 30.1096C29.0881 34.4228 30.1198 37.7165 32.185 39.7797C34.2502 41.843 36.5622 42.8755 39.1229 42.8755C40.6463 42.8755 42.1048 42.672 43.5001 42.2668C44.8955 41.8616 46.2278 41.2623 47.497 40.4743C48.5584 36.8296 49.0891 34.4041 49.0891 33.1961C49.0891 32.6154 48.8757 32.1579 48.4489 31.8199C48.0221 31.4839 47.2669 31.3158 46.1833 31.3158C45.814 31.3158 44.9252 31.3737 43.5187 31.4895L43.8304 29.7828C44.8454 29.598 45.8715 29.5046 46.9106 29.5046C47.7419 29.5046 48.7681 29.527 49.9909 29.5737C50.9372 29.598 51.6405 29.6092 52.1025 29.6092C52.9338 29.6092 54.2011 29.5401 55.9082 29.4001C56.8082 29.331 57.5801 29.2843 58.2258 29.26L57.8454 31.0357C56.6783 31.0133 55.8507 31.2617 55.3608 31.7845C54.871 32.3073 54.357 33.6703 53.8207 35.8755C51.9225 43.7923 50.0521 49.5189 48.2114 53.0591C46.3707 56.5993 44.2758 59.1405 41.9285 60.6847C39.5812 62.2289 37.0484 63 34.3319 63C32.031 63 30.1717 62.4716 28.7559 61.4148C27.3401 60.3579 26.6332 59.2507 26.6332 58.0893C26.6332 57.4619 26.8577 56.9279 27.3086 56.4873C27.7576 56.0466 28.2716 55.8263 28.8487 55.8263C29.6317 55.8263 30.5206 56.3827 31.5133 57.4974C32.6433 58.7503 33.5266 59.5625 34.1611 59.9341C34.7957 60.3057 35.4693 60.4905 36.1856 60.4905C37.6385 60.4905 38.9188 59.921 40.0265 58.7839C42.2866 56.5321 44.5133 51.3208 46.7047 43.15C45.1813 43.9865 43.6356 44.6176 42.0677 45.0471C40.4979 45.4765 38.8947 45.6912 37.2581 45.6912C33.1981 45.6912 30.0029 44.612 27.6723 42.4554C24.5587 39.5799 23 35.5674 23 30.4177C23 25.7329 24.182 21.3245 26.5478 17.1962C28.9118 13.0678 32.1998 9.66957 36.4101 7.00137C40.6203 4.33504 44.6172 3 48.4007 3C50.4529 3 52.8651 3.32489 55.6336 3.97467C58.4244 4.60204 60.5471 4.92693 62 4.94934C60.7308 9.35962 60.0962 13.3759 60.0962 16.9964L60.0943 17.0076Z" fill="white"/>
</g>
<defs>
<clipPath id="clip0_203_160">
<rect width="67" height="67" fill="white"/>
</clipPath>
</defs>
</svg>
