<svg width="25" height="27" viewBox="0 0 25 27" fill="none" xmlns="http://www.w3.org/2000/svg">
<path d="M2.16669 4.45833L9.91669 4.45833M9.91669 4.45833C9.91669 5.88507 11.0733 7.04167 12.5 7.04167C13.9268 7.04167 15.0834 5.88507 15.0834 4.45833M9.91669 4.45833C9.91669 3.0316 11.0733 1.875 12.5 1.875C13.9268 1.875 15.0834 3.0316 15.0834 4.45833M15.0834 4.45833L22.8334 4.45833M2.16669 13.5L17.6667 13.5M17.6667 13.5C17.6667 14.9267 18.8233 16.0833 20.25 16.0833C21.6768 16.0833 22.8334 14.9267 22.8334 13.5C22.8334 12.0733 21.6768 10.9167 20.25 10.9167C18.8233 10.9167 17.6667 12.0733 17.6667 13.5ZM7.33335 22.5417L22.8334 22.5417M7.33335 22.5417C7.33335 21.1149 6.17676 19.9583 4.75002 19.9583C3.32329 19.9583 2.16669 21.1149 2.16669 22.5417C2.16669 23.9684 3.32328 25.125 4.75002 25.125C6.17676 25.125 7.33335 23.9684 7.33335 22.5417Z" stroke="#5644FC" stroke-width="2.6" stroke-linecap="round"/>
</svg>
