<svg width="31" height="31" viewBox="0 0 31 31" fill="none" xmlns="http://www.w3.org/2000/svg">
<path d="M5.16669 6.45833L12.9167 6.45833M12.9167 6.45833C12.9167 7.88507 14.0733 9.04167 15.5 9.04167C16.9268 9.04167 18.0834 7.88507 18.0834 6.45833M12.9167 6.45833C12.9167 5.0316 14.0733 3.875 15.5 3.875C16.9268 3.875 18.0834 5.0316 18.0834 6.45833M18.0834 6.45833L25.8334 6.45833M5.16669 15.5L20.6667 15.5M20.6667 15.5C20.6667 16.9267 21.8233 18.0833 23.25 18.0833C24.6768 18.0833 25.8334 16.9267 25.8334 15.5C25.8334 14.0733 24.6768 12.9167 23.25 12.9167C21.8233 12.9167 20.6667 14.0733 20.6667 15.5ZM10.3334 24.5417L25.8334 24.5417M10.3334 24.5417C10.3334 23.1149 9.17676 21.9583 7.75002 21.9583C6.32329 21.9583 5.16669 23.1149 5.16669 24.5417C5.16669 25.9684 6.32328 27.125 7.75002 27.125C9.17676 27.125 10.3334 25.9684 10.3334 24.5417Z" stroke="#A3A1FF" stroke-width="2.6" stroke-linecap="round"/>
</svg>
