<svg width="19" height="19" viewBox="0 0 19 19" fill="none" xmlns="http://www.w3.org/2000/svg">
<path d="M8.70833 2.375H10.2917C10.7289 2.375 11.0833 2.72944 11.0833 3.16667V3.61696C11.0833 3.95563 11.3106 4.24986 11.6234 4.37973C11.9363 4.50964 12.3007 4.46012 12.5402 4.22056L12.8587 3.90205C13.1679 3.59289 13.6691 3.59289 13.9783 3.90205L15.0979 5.02164C15.4071 5.3308 15.4071 5.83206 15.0979 6.14122L14.7794 6.45968C14.5399 6.69927 14.4903 7.06362 14.6203 7.37655C14.7501 7.68935 15.0444 7.91667 15.3831 7.91667L15.8333 7.91667C16.2706 7.91667 16.625 8.27111 16.625 8.70833V10.2917C16.625 10.7289 16.2706 11.0833 15.8333 11.0833H15.3831C15.0444 11.0833 14.7501 11.3106 14.6203 11.6234C14.4904 11.9364 14.5399 12.3007 14.7794 12.5403L15.0979 12.8587C15.4071 13.1679 15.4071 13.6692 15.0979 13.9783L13.9783 15.0979C13.6692 15.4071 13.1679 15.4071 12.8587 15.0979L12.5403 14.7794C12.3007 14.5399 11.9364 14.4904 11.6234 14.6203C11.3106 14.7501 11.0833 15.0444 11.0833 15.3831V15.8333C11.0833 16.2706 10.7289 16.625 10.2917 16.625H8.70833C8.27111 16.625 7.91667 16.2706 7.91667 15.8333V15.3831C7.91667 15.0444 7.68935 14.7501 7.37655 14.6203C7.06362 14.4903 6.69927 14.5399 6.45968 14.7794L6.14121 15.0979C5.83205 15.4071 5.33079 15.4071 5.02163 15.0979L3.90204 13.9783C3.59287 13.6692 3.59287 13.1679 3.90204 12.8587L4.22056 12.5402C4.46012 12.3007 4.50964 11.9363 4.37973 11.6234C4.24986 11.3106 3.95563 11.0833 3.61696 11.0833H3.16667C2.72944 11.0833 2.375 10.7289 2.375 10.2917V8.70833C2.375 8.27111 2.72944 7.91667 3.16667 7.91667L3.61694 7.91667C3.95562 7.91667 4.24986 7.68936 4.37973 7.37656C4.50965 7.06365 4.46014 6.69931 4.22056 6.45973L3.90205 6.14123C3.59289 5.83206 3.59289 5.33081 3.90205 5.02164L5.02164 3.90206C5.3308 3.59289 5.83206 3.59289 6.14122 3.90206L6.45973 4.22056C6.69931 4.46014 7.06365 4.50965 7.37656 4.37973C7.68936 4.24986 7.91667 3.95562 7.91667 3.61694V3.16667C7.91667 2.72944 8.27111 2.375 8.70833 2.375Z" stroke="white" stroke-width="1.5"/>
<path d="M11.0833 9.5C11.0833 10.3745 10.3745 11.0833 9.5 11.0833C8.62555 11.0833 7.91667 10.3745 7.91667 9.5C7.91667 8.62555 8.62555 7.91667 9.5 7.91667C10.3745 7.91667 11.0833 8.62555 11.0833 9.5Z" stroke="white" stroke-width="1.5"/>
</svg>
